<svg preserveAspectRatio="none" width="100%" height="100%" overflow="visible" style="display: block;" viewBox="0 0 20 20" fill="none" xmlns="http://www.w3.org/2000/svg">
<g id="Frame">
<path id="Vector" d="M18.3333 13.3333C18.3333 8.731 14.6023 5 10 5C5.39762 5 1.66667 8.731 1.66667 13.3333" stroke="var(--stroke-0, white)" stroke-width="1.5" stroke-linecap="round" stroke-linejoin="round"/>
<path id="Vector_2" d="M1.66667 14.1667C2.1269 14.1667 2.5 13.7936 2.5 13.3333C2.5 12.8731 2.1269 12.5 1.66667 12.5C1.20643 12.5 0.833333 12.8731 0.833333 13.3333C0.833333 13.7936 1.20643 14.1667 1.66667 14.1667Z" fill="var(--fill-0, white)" stroke="var(--stroke-0, white)" stroke-width="1.5" stroke-linecap="round" stroke-linejoin="round"/>
<path id="Vector_3" d="M18.3333 14.1667C18.7936 14.1667 19.1667 13.7936 19.1667 13.3333C19.1667 12.8731 18.7936 12.5 18.3333 12.5C17.8731 12.5 17.5 12.8731 17.5 13.3333C17.5 13.7936 17.8731 14.1667 18.3333 14.1667Z" fill="var(--fill-0, white)" stroke="var(--stroke-0, white)" stroke-width="1.5" stroke-linecap="round" stroke-linejoin="round"/>
</g>
</svg>
