<svg preserveAspectRatio="none" width="100%" height="100%" overflow="visible" style="display: block;" viewBox="0 0 20 20" fill="none" xmlns="http://www.w3.org/2000/svg">
<g id="Frame">
<path id="Vector" d="M4.16667 13.3333V11.6667" stroke="var(--stroke-0, white)" stroke-width="1.5" stroke-linecap="round" stroke-linejoin="round"/>
<path id="Vector_2" d="M10 17.5V15.8333" stroke="var(--stroke-0, white)" stroke-width="1.5" stroke-linecap="round" stroke-linejoin="round"/>
<path id="Vector_3" d="M15.8333 10.8333V9.16667" stroke="var(--stroke-0, white)" stroke-width="1.5" stroke-linecap="round" stroke-linejoin="round"/>
<path id="Vector_4" d="M4.16667 6.66667V5" stroke="var(--stroke-0, white)" stroke-width="1.5" stroke-linecap="round" stroke-linejoin="round"/>
<path id="Vector_5" d="M10 10.8333V9.16667" stroke="var(--stroke-0, white)" stroke-width="1.5" stroke-linecap="round" stroke-linejoin="round"/>
<path id="Vector_6" d="M15.8333 4.16667V2.5" stroke="var(--stroke-0, white)" stroke-width="1.5" stroke-linecap="round" stroke-linejoin="round"/>
<path id="Vector_7" d="M5.83333 7.16667V11.1667C5.83333 11.4428 5.60948 11.6667 5.33333 11.6667H3C2.72386 11.6667 2.5 11.4428 2.5 11.1667V7.16667C2.5 6.89053 2.72386 6.66667 3 6.66667H5.33333C5.60948 6.66667 5.83333 6.89053 5.83333 7.16667Z" stroke="var(--stroke-0, white)" stroke-width="1.5" stroke-linecap="round" stroke-linejoin="round"/>
<path id="Vector_8" d="M11.6667 11.3333V15.3333C11.6667 15.6095 11.4428 15.8333 11.1667 15.8333H8.83333C8.55717 15.8333 8.33333 15.6095 8.33333 15.3333V11.3333C8.33333 11.0572 8.55717 10.8333 8.83333 10.8333H11.1667C11.4428 10.8333 11.6667 11.0572 11.6667 11.3333Z" stroke="var(--stroke-0, white)" stroke-width="1.5" stroke-linecap="round" stroke-linejoin="round"/>
<path id="Vector_9" d="M17.5 4.66667V8.66667C17.5 8.94283 17.2762 9.16667 17 9.16667H14.6667C14.3905 9.16667 14.1667 8.94283 14.1667 8.66667V4.66667C14.1667 4.39052 14.3905 4.16667 14.6667 4.16667H17C17.2762 4.16667 17.5 4.39052 17.5 4.66667Z" stroke="var(--stroke-0, white)" stroke-width="1.5" stroke-linecap="round" stroke-linejoin="round"/>
</g>
</svg>
