<svg preserveAspectRatio="none" width="100%" height="100%" overflow="visible" style="display: block;" viewBox="0 0 20 20" fill="none" xmlns="http://www.w3.org/2000/svg">
<g id="Frame">
<path id="Vector" d="M13.3845 8.66975L11.6667 14.1667H8.33333L6.61554 8.66975C6.12571 7.10228 6.43681 5.39422 7.44782 4.10012L9.606 1.33767C9.80617 1.08143 10.1938 1.08143 10.394 1.33767L12.5522 4.10012C13.5632 5.39422 13.8742 7.10228 13.3845 8.66975Z" stroke="var(--stroke-0, white)" stroke-width="1.5" stroke-linecap="round" stroke-linejoin="round"/>
<path id="Vector_2" d="M8.33333 16.6667C8.33333 18.3333 10 19.1667 10 19.1667C10 19.1667 11.6667 18.3333 11.6667 16.6667" stroke="var(--stroke-0, white)" stroke-width="1.5" stroke-linecap="round" stroke-linejoin="round"/>
<path id="Vector_3" d="M7.08333 10.4167C4.16667 12.5 5.83333 15.8333 5.83333 15.8333L8.33333 14.1667" stroke="var(--stroke-0, white)" stroke-width="1.5" stroke-linecap="round" stroke-linejoin="round"/>
<path id="Vector_4" d="M13.276 10.4167C16.1927 12.5 14.526 15.8333 14.526 15.8333L12.026 14.1667" stroke="var(--stroke-0, white)" stroke-width="1.5" stroke-linecap="round" stroke-linejoin="round"/>
<path id="Vector_5" d="M10 9.16667C9.0795 9.16667 8.33333 8.4205 8.33333 7.5C8.33333 6.57953 9.0795 5.83333 10 5.83333C10.9205 5.83333 11.6667 6.57953 11.6667 7.5C11.6667 8.4205 10.9205 9.16667 10 9.16667Z" stroke="var(--stroke-0, white)" stroke-width="1.5" stroke-linecap="round" stroke-linejoin="round"/>
</g>
</svg>
