<svg preserveAspectRatio="none" width="100%" height="100%" overflow="visible" style="display: block;" viewBox="0 0 20 20" fill="none" xmlns="http://www.w3.org/2000/svg">
<g id="Frame">
<path id="Vector" d="M13.3333 10.8333C11.0322 10.8333 9.16667 9.90058 9.16667 8.75C9.16667 7.59941 11.0322 6.66667 13.3333 6.66667C15.6345 6.66667 17.5 7.59941 17.5 8.75C17.5 9.90058 15.6345 10.8333 13.3333 10.8333Z" stroke="var(--stroke-0, white)" stroke-width="1.5" stroke-linecap="round" stroke-linejoin="round"/>
<path id="Vector_2" d="M9.16667 12.0833C9.16667 13.2339 11.0322 14.1667 13.3333 14.1667C15.6345 14.1667 17.5 13.2339 17.5 12.0833" stroke="var(--stroke-0, white)" stroke-width="1.5" stroke-linecap="round" stroke-linejoin="round"/>
<path id="Vector_3" d="M2.5 7.91667C2.5 9.06725 4.36548 10 6.66667 10C7.60486 10 8.47058 9.845 9.16708 9.58333" stroke="var(--stroke-0, white)" stroke-width="1.5" stroke-linecap="round" stroke-linejoin="round"/>
<path id="Vector_4" d="M2.5 10.8333C2.5 11.9839 4.36548 12.9167 6.66667 12.9167C7.60467 12.9167 8.47025 12.7617 9.16667 12.5002" stroke="var(--stroke-0, white)" stroke-width="1.5" stroke-linecap="round" stroke-linejoin="round"/>
<path id="Vector_5" d="M2.5 4.58333V13.75C2.5 14.9006 4.36548 15.8333 6.66667 15.8333C7.60469 15.8333 8.47025 15.6782 9.16667 15.4167" stroke="var(--stroke-0, white)" stroke-width="1.5" stroke-linecap="round" stroke-linejoin="round"/>
<path id="Vector_6" d="M10.8333 7.08333V4.58333" stroke="var(--stroke-0, white)" stroke-width="1.5" stroke-linecap="round" stroke-linejoin="round"/>
<path id="Vector_7" d="M9.16667 8.75V15.4167C9.16667 16.5672 11.0322 17.5 13.3333 17.5C15.6345 17.5 17.5 16.5672 17.5 15.4167V8.75" stroke="var(--stroke-0, white)" stroke-width="1.5" stroke-linecap="round" stroke-linejoin="round"/>
<path id="Vector_8" d="M6.66667 6.66667C4.36548 6.66667 2.5 5.73392 2.5 4.58333C2.5 3.43274 4.36548 2.5 6.66667 2.5C8.96783 2.5 10.8333 3.43274 10.8333 4.58333C10.8333 5.73392 8.96783 6.66667 6.66667 6.66667Z" stroke="var(--stroke-0, white)" stroke-width="1.5" stroke-linecap="round" stroke-linejoin="round"/>
</g>
</svg>
