<svg width="71" height="28" viewBox="0 0 71 28" fill="none" xmlns="http://www.w3.org/2000/svg">
<path opacity="0.7" d="M14.3338 27.6666C14.1497 27.8507 13.858 27.8575 13.6823 27.6818L7.31877 21.3183L14.4682 21.1485L14.476 27.3089C14.481 27.4361 14.4333 27.5671 14.3338 27.6666Z" fill="white"/>
<path d="M7.31822 21.3178C7.14249 21.1421 7.14928 20.8504 7.33337 20.6663L14.4575 13.5422L27.3541 13.5543C27.4736 13.5504 27.5924 13.5926 27.6814 13.6816C27.8571 13.8573 27.8503 14.149 27.6662 14.3331L20.6997 21.2996C20.6065 21.3929 20.4856 21.4406 20.3662 21.4422L7.66969 21.4436C7.54219 21.4545 7.41325 21.4128 7.31822 21.3178Z" fill="white"/>
<path opacity="0.7" d="M13.6662 0.333605C13.8503 0.149513 14.142 0.14273 14.3177 0.318454L20.6812 6.68199L13.5391 6.85178L13.524 0.691318C13.519 0.564185 13.5667 0.433161 13.6662 0.333605Z" fill="white"/>
<path d="M20.6815 6.68171C20.8573 6.85744 20.8505 7.14913 20.6664 7.33322L13.5575 14.4422L0.645608 14.4452C0.526151 14.4491 0.407393 14.407 0.318387 14.318C0.142664 14.1422 0.149447 13.8505 0.333538 13.6664L7.30004 6.69989C7.39328 6.60665 7.51413 6.55889 7.63353 6.5573L20.3301 6.55593C20.4576 6.54503 20.5865 6.58668 20.6815 6.68171Z" fill="white"/>
<path d="M32.6644 5.45349C32.6644 5.17734 32.8883 4.95349 33.1644 4.95349H36.7003C36.9765 4.95349 37.2003 5.17734 37.2003 5.45349V22.4712C37.2003 22.7474 36.9765 22.9712 36.7003 22.9712H33.1644C32.8883 22.9712 32.6644 22.7474 32.6644 22.4712V5.45349Z" fill="white"/>
<path d="M44.4905 13.7734L39.4955 5.71695C39.289 5.38387 39.5286 4.95349 39.9205 4.95349H43.5272C43.7027 4.95349 43.8654 5.04551 43.9558 5.19595L47.1112 10.447H47.1616L50.342 5.19451C50.4326 5.04489 50.5948 4.95349 50.7697 4.95349H54.3748C54.7673 4.95349 55.0067 5.385 54.7991 5.71805L49.8075 13.723L55.2818 22.2C55.4966 22.5327 55.2578 22.9712 54.8617 22.9712H51.0201C50.846 22.9712 50.6845 22.8807 50.5936 22.7323L47.1616 17.1249H47.1112L43.7041 22.7309C43.6134 22.8801 43.4515 22.9712 43.2769 22.9712H39.439C39.0424 22.9712 38.8037 22.5316 39.0196 22.1989L44.4905 13.7734Z" fill="white"/>
<path d="M63.9226 11.7826C67.3245 12.715 70.8272 13.8238 70.8272 17.6793C70.8272 21.1317 68.2065 23.3744 63.6958 23.3744C59.2074 23.3744 55.782 21.2485 55.4996 17.5499C55.4786 17.2745 55.7046 17.0493 55.9808 17.0493H59.5167C59.7928 17.0493 60.0106 17.2752 60.0578 17.5472C60.3254 19.0883 61.8652 19.6701 63.6958 19.6701C65.3842 19.6701 66.2913 19.0149 66.2913 18.1077C66.2913 16.6713 64.351 16.3437 61.8058 15.5877C58.7063 14.6806 55.9848 13.345 55.9848 10.0186C55.9848 6.08747 59.0591 4.55029 62.9398 4.55029C66.9459 4.55029 70.1299 6.55986 70.5353 9.90511C70.5694 10.1859 70.3406 10.4218 70.0577 10.4218H66.4707C66.2229 10.4218 66.0182 10.2376 65.9414 10.002C65.5815 8.89677 64.4914 8.25464 62.9398 8.25464C61.579 8.25464 60.5207 8.68304 60.5207 9.69102C60.5207 10.7998 61.6546 11.1526 63.9226 11.7826Z" fill="white"/>
</svg>
