<svg width="81" height="28" viewBox="0 0 81 28" fill="none" xmlns="http://www.w3.org/2000/svg">
<path opacity="0.7" d="M14.3338 27.6666C14.1497 27.8507 13.858 27.8575 13.6823 27.6818L7.31881 21.3183L14.4682 21.1485L14.4761 27.3089C14.4811 27.4361 14.4334 27.5671 14.3338 27.6666Z" fill="white"/>
<path d="M7.31824 21.3178C7.14252 21.1421 7.1493 20.8504 7.33339 20.6663L14.4575 13.5422L27.3542 13.5543C27.4736 13.5504 27.5924 13.5926 27.6814 13.6816C27.8571 13.8573 27.8503 14.149 27.6662 14.3331L20.6997 21.2996C20.6065 21.3929 20.4856 21.4406 20.3662 21.4422L7.66972 21.4436C7.54222 21.4545 7.41327 21.4128 7.31824 21.3178Z" fill="white"/>
<path opacity="0.7" d="M13.6663 0.333605C13.8504 0.149513 14.1421 0.14273 14.3178 0.318454L20.6813 6.68199L13.5392 6.85178L13.524 0.691318C13.519 0.564185 13.5667 0.433161 13.6663 0.333605Z" fill="white"/>
<path d="M20.6816 6.68171C20.8573 6.85744 20.8505 7.14913 20.6664 7.33322L13.5575 14.4422L0.645631 14.4452C0.526174 14.4491 0.407416 14.407 0.31841 14.318C0.142687 14.1422 0.14947 13.8505 0.333561 13.6664L7.30006 6.69989C7.39331 6.60665 7.51415 6.55889 7.63356 6.5573L20.3301 6.55593C20.4576 6.54503 20.5865 6.58668 20.6816 6.68171Z" fill="white"/>
<path d="M32.6647 5.45349C32.6647 5.17734 32.8886 4.95349 33.1647 4.95349H36.7006C36.9768 4.95349 37.2006 5.17734 37.2006 5.45349V22.4712C37.2006 22.7474 36.9768 22.9712 36.7006 22.9712H33.1647C32.8886 22.9712 32.6647 22.7474 32.6647 22.4712V5.45349Z" fill="white"/>
<path d="M44.4908 13.7734L39.4958 5.71695C39.2893 5.38387 39.5289 4.95349 39.9208 4.95349H43.5275C43.703 4.95349 43.8657 5.04551 43.9561 5.19595L47.1115 10.447H47.1619L50.3423 5.19451C50.4329 5.04489 50.5951 4.95349 50.77 4.95349H54.3751C54.7676 4.95349 55.007 5.385 54.7994 5.71805L49.8078 13.723L55.2821 22.2C55.4969 22.5327 55.2581 22.9712 54.862 22.9712H51.0204C50.8463 22.9712 50.6848 22.8807 50.5939 22.7323L47.1619 17.1249H47.1115L43.7044 22.7309C43.6137 22.8801 43.4518 22.9712 43.2771 22.9712H39.4393C39.0427 22.9712 38.804 22.5316 39.0199 22.1989L44.4908 13.7734Z" fill="white"/>
<path d="M63.9229 11.7826C67.3248 12.715 70.8275 13.8238 70.8275 17.6793C70.8275 21.1317 68.2068 23.3744 63.6961 23.3744C59.2077 23.3744 55.7823 21.2485 55.4999 17.5499C55.4789 17.2745 55.7049 17.0493 55.9811 17.0493H59.517C59.7931 17.0493 60.0109 17.2752 60.0581 17.5472C60.3257 19.0883 61.8655 19.6701 63.6961 19.6701C65.3844 19.6701 66.2916 19.0149 66.2916 18.1077C66.2916 16.6713 64.3513 16.3437 61.8061 15.5877C58.7066 14.6806 55.985 13.345 55.985 10.0186C55.985 6.08747 59.0594 4.55029 62.9401 4.55029C66.9462 4.55029 70.1302 6.55986 70.5356 9.90511C70.5697 10.1859 70.3409 10.4218 70.058 10.4218H66.471C66.2232 10.4218 66.0185 10.2376 65.9417 10.002C65.5818 8.89677 64.4917 8.25464 62.9401 8.25464C61.5793 8.25464 60.521 8.68304 60.521 9.69102C60.521 10.7998 61.6549 11.1526 63.9229 11.7826Z" fill="white"/>
<path opacity="0.5" d="M77.0563 11.2319C75.2723 11.2319 73.8274 9.78264 73.8274 8.00023C73.8274 6.21781 75.2723 4.76855 77.0563 4.76855C78.8458 4.76855 80.2907 6.21781 80.2907 8.00023C80.2907 9.78264 78.8514 11.2319 77.0563 11.2319ZM77.0563 10.4045C78.3956 10.4101 79.4738 9.33287 79.4738 8.00023C79.4738 6.67313 78.3956 5.59591 77.0563 5.59591C75.728 5.59591 74.6499 6.67313 74.6499 8.00023C74.6499 9.32732 75.728 10.4101 77.0563 10.4045ZM76.1606 9.45503C76.0199 9.45503 75.9059 9.341 75.9059 9.20032V6.7335C75.9059 6.59283 76.0199 6.47879 76.1606 6.47879H77.3842C77.8732 6.47323 78.3734 6.81195 78.3734 7.44496C78.3734 7.8503 78.1733 8.13904 77.8955 8.30007L78.2923 9.08546C78.3779 9.25488 78.2547 9.45503 78.0649 9.45503H77.838C77.7406 9.45503 77.6517 9.39941 77.609 9.31177L77.1897 8.45H76.6339V9.20032C76.6339 9.341 76.5199 9.45503 76.3792 9.45503H76.1606ZM76.6339 7.66222C76.6339 7.8029 76.748 7.91694 76.8886 7.91694H77.1674C77.3786 7.91694 77.5954 7.76146 77.5954 7.44496C77.5954 7.1229 77.3675 7.00629 77.173 7.00629H76.8886C76.748 7.00629 76.6339 7.12033 76.6339 7.26101V7.66222Z" fill="white"/>
</svg>
