<svg preserveAspectRatio="none" width="100%" height="100%" overflow="visible" style="display: block;" viewBox="0 0 20 20" fill="none" xmlns="http://www.w3.org/2000/svg">
<g id="Frame" clip-path="url(#clip0_2973_160131)">
<path id="Vector" d="M10 18.3333C14.6023 18.3333 18.3333 14.6023 18.3333 10C18.3333 5.39762 14.6023 1.66667 10 1.66667C5.39762 1.66667 1.66667 5.39762 1.66667 10C1.66667 14.6023 5.39762 18.3333 10 18.3333Z" stroke="var(--stroke-0, white)" stroke-width="1.5" stroke-linecap="round" stroke-linejoin="round"/>
<path id="Vector_2" d="M2.08333 10.4167L6.66667 12.0833L5.83333 15L6.66667 17.5" stroke="var(--stroke-0, white)" stroke-width="1.5" stroke-linecap="round" stroke-linejoin="round"/>
<path id="Vector_3" d="M14.1667 17.0833L13.75 15L11.6667 14.1667V11.25L14.1667 10.4167L17.9167 10.8333" stroke="var(--stroke-0, white)" stroke-width="1.5" stroke-linecap="round" stroke-linejoin="round"/>
<path id="Vector_4" d="M15.8333 4.58333L15.4167 5.83333L12.5 6.25V8.75L14.5833 7.91667H16.25L17.9167 8.75" stroke="var(--stroke-0, white)" stroke-width="1.5" stroke-linecap="round" stroke-linejoin="round"/>
<path id="Vector_5" d="M2.08333 8.75L4.16667 7.08333L6.25 6.66667L7.91667 4.16667L7.08333 2.5" stroke="var(--stroke-0, white)" stroke-width="1.5" stroke-linecap="round" stroke-linejoin="round"/>
</g>
<defs>
<clipPath id="clip0_2973_160131">
<rect width="20" height="20" fill="white"/>
</clipPath>
</defs>
</svg>
