<svg width="18" height="18" viewBox="0 0 18 18" fill="none" xmlns="http://www.w3.org/2000/svg">
<path d="M7.39506 2.15844C8.19476 1.08295 9.80524 1.08295 10.6049 2.15844L11.4094 3.24033C11.7384 3.68284 12.2356 3.96987 12.7833 4.03357L14.1225 4.1893C15.4537 4.34411 16.259 5.73884 15.7274 6.96914L15.1927 8.20677C14.974 8.71298 14.974 9.28702 15.1927 9.79323L15.7274 11.0309C16.259 12.2612 15.4537 13.6559 14.1225 13.8107L12.7833 13.9664C12.2356 14.0301 11.7384 14.3172 11.4094 14.7597L10.6049 15.8416C9.80524 16.917 8.19476 16.917 7.39506 15.8416L6.5906 14.7597C6.26157 14.3172 5.76443 14.0301 5.21668 13.9664L3.87751 13.8107C2.54626 13.6559 1.74101 12.2612 2.27257 11.0309L2.80728 9.79323C3.02599 9.28702 3.02599 8.71298 2.80728 8.20677L2.27257 6.96914C1.74101 5.73884 2.54626 4.34411 3.87751 4.1893L5.21668 4.03357C5.76443 3.96987 6.26157 3.68284 6.5906 3.24033L7.39506 2.15844Z" stroke="white" stroke-width="1.5" stroke-linecap="round" stroke-linejoin="round"/>
<circle cx="9" cy="9" r="2" stroke="white" stroke-width="1.5" stroke-linecap="round" stroke-linejoin="round"/>
</svg>
