<svg preserveAspectRatio="none" width="100%" height="100%" overflow="visible" style="display: block;" viewBox="0 0 20 20" fill="none" xmlns="http://www.w3.org/2000/svg">
<g id="Frame">
<path id="Vector" d="M11.5397 11.0975L7.92096 15.2332C7.25694 15.9921 6.07639 15.9921 5.41238 15.2332L1.79365 11.0975C1.24382 10.4692 1.24382 9.53083 1.79365 8.9025L5.41238 4.76682C6.07639 4.00793 7.25694 4.00793 7.92096 4.76681L11.5397 8.9025C12.0895 9.53083 12.0895 10.4692 11.5397 11.0975Z" stroke="var(--stroke-0, white)" stroke-width="1.5" stroke-linecap="round" stroke-linejoin="round"/>
<path id="Vector_2" d="M10.8333 15.8333L14.9037 11.0847C15.4386 10.4605 15.4386 9.5395 14.9037 8.91533L10.8333 4.16667" stroke="var(--stroke-0, white)" stroke-width="1.5" stroke-linecap="round" stroke-linejoin="round"/>
<path id="Vector_3" d="M14.1667 15.8333L18.237 11.0847C18.7719 10.4605 18.7719 9.5395 18.237 8.91533L14.1667 4.16667" stroke="var(--stroke-0, white)" stroke-width="1.5" stroke-linecap="round" stroke-linejoin="round"/>
</g>
</svg>
