<svg width="57" height="58" viewBox="0 0 57 58" fill="none" xmlns="http://www.w3.org/2000/svg">
<circle cx="28.5" cy="29" r="28.5" fill="#6666FF" fill-opacity="0.1"/>
<path d="M28 39C33.5228 39 38 34.5228 38 29C38 23.4771 33.5228 19 28 19C22.4771 19 18 23.4771 18 29C18 34.5228 22.4771 39 28 39Z" stroke="#6666FF" stroke-width="1.5" stroke-linecap="round" stroke-linejoin="round"/>
<path d="M31 25.5C30.315 24.815 29.1087 24.3386 28 24.3087M28 24.3087C26.6809 24.2732 25.5 24.87 25.5 26.5C25.5 29.5 31 28 31 31C31 32.711 29.5362 33.4462 28 33.391M28 24.3087V22.5M25 32C25.6445 32.8593 26.8428 33.3494 28 33.391M28 33.391V35.5" stroke="#6666FF" stroke-width="1.5" stroke-linecap="round" stroke-linejoin="round"/>
</svg>
